<?xml version="1.0" encoding="utf-8" standalone="no"?>
<!DOCTYPE svg PUBLIC "-//W3C//DTD SVG 1.1//EN"
  "http://www.w3.org/Graphics/SVG/1.1/DTD/svg11.dtd">
<svg xmlns:xlink="http://www.w3.org/1999/xlink" width="783.653125pt" height="378.83625pt" viewBox="0 0 783.653125 378.83625" xmlns="http://www.w3.org/2000/svg" version="1.1">
 <metadata>
  <rdf:RDF xmlns:dc="http://purl.org/dc/elements/1.1/" xmlns:cc="http://creativecommons.org/ns#" xmlns:rdf="http://www.w3.org/1999/02/22-rdf-syntax-ns#">
   <cc:Work>
    <dc:type rdf:resource="http://purl.org/dc/dcmitype/StillImage"/>
    <dc:date>2025-01-19T15:37:42.627080</dc:date>
    <dc:format>image/svg+xml</dc:format>
    <dc:creator>
     <cc:Agent>
      <dc:title>Matplotlib v3.9.4, https://matplotlib.org/</dc:title>
     </cc:Agent>
    </dc:creator>
   </cc:Work>
  </rdf:RDF>
 </metadata>
 <defs>
  <style type="text/css">*{stroke-linejoin: round; stroke-linecap: butt}</style>
 </defs>
 <g id="figure_1">
  <g id="patch_1">
   <path d="M 0 378.83625 
L 783.653125 378.83625 
L 783.653125 0 
L 0 0 
z
" style="fill: #ffffff"/>
  </g>
  <g id="axes_1">
   <g id="patch_2">
    <path d="M 28.942188 354.958125 
L 698.542188 354.958125 
L 698.542188 22.318125 
L 28.942188 22.318125 
z
" style="fill: #ffffff"/>
   </g>
   <g id="matplotlib.axis_1">
    <g id="xtick_1">
     <g id="line2d_1">
      <defs>
       <path id="m14a24c5c6f" d="M 0 0 
L 0 3.5 
" style="stroke: #000000; stroke-width: 0.8"/>
      </defs>
      <g>
       <use xlink:href="#m14a24c5c6f" x="59.378551" y="354.958125" style="stroke: #000000; stroke-width: 0.8"/>
      </g>
     </g>
     <g id="text_1">
      <!-- 0 -->
      <g transform="translate(56.197301 369.556562) scale(0.1 -0.1)">
       <defs>
        <path id="DejaVuSans-30" d="M 2034 4250 
Q 1547 4250 1301 3770 
Q 1056 3291 1056 2328 
Q 1056 1369 1301 889 
Q 1547 409 2034 409 
Q 2525 409 2770 889 
Q 3016 1369 3016 2328 
Q 3016 3291 2770 3770 
Q 2525 4250 2034 4250 
z
M 2034 4750 
Q 2819 4750 3233 4129 
Q 3647 3509 3647 2328 
Q 3647 1150 3233 529 
Q 2819 -91 2034 -91 
Q 1250 -91 836 529 
Q 422 1150 422 2328 
Q 422 3509 836 4129 
Q 1250 4750 2034 4750 
z
" transform="scale(0.015625)"/>
       </defs>
       <use xlink:href="#DejaVuSans-30"/>
      </g>
     </g>
    </g>
    <g id="xtick_2">
     <g id="line2d_2">
      <g>
       <use xlink:href="#m14a24c5c6f" x="363.742188" y="354.958125" style="stroke: #000000; stroke-width: 0.8"/>
      </g>
     </g>
     <g id="text_2">
      <!-- π -->
      <g transform="translate(360.732031 369.556562) scale(0.1 -0.1)">
       <defs>
        <path id="DejaVuSans-3c0" d="M 231 3500 
L 3584 3500 
L 3584 2925 
L 3144 2925 
L 3144 775 
Q 3144 550 3220 451 
Q 3297 353 3469 353 
Q 3516 353 3584 361 
Q 3653 369 3675 372 
L 3675 -44 
Q 3566 -84 3450 -103 
Q 3334 -122 3219 -122 
Q 2844 -122 2700 83 
Q 2556 288 2556 838 
L 2556 2925 
L 1266 2925 
L 1266 0 
L 678 0 
L 678 2925 
L 231 2925 
L 231 3500 
z
" transform="scale(0.015625)"/>
       </defs>
       <use xlink:href="#DejaVuSans-3c0"/>
      </g>
     </g>
    </g>
    <g id="xtick_3">
     <g id="line2d_3">
      <g>
       <use xlink:href="#m14a24c5c6f" x="668.105824" y="354.958125" style="stroke: #000000; stroke-width: 0.8"/>
      </g>
     </g>
     <g id="text_3">
      <!-- 2π -->
      <g transform="translate(661.914418 369.556562) scale(0.1 -0.1)">
       <defs>
        <path id="DejaVuSans-32" d="M 1228 531 
L 3431 531 
L 3431 0 
L 469 0 
L 469 531 
Q 828 903 1448 1529 
Q 2069 2156 2228 2338 
Q 2531 2678 2651 2914 
Q 2772 3150 2772 3378 
Q 2772 3750 2511 3984 
Q 2250 4219 1831 4219 
Q 1534 4219 1204 4116 
Q 875 4013 500 3803 
L 500 4441 
Q 881 4594 1212 4672 
Q 1544 4750 1819 4750 
Q 2544 4750 2975 4387 
Q 3406 4025 3406 3419 
Q 3406 3131 3298 2873 
Q 3191 2616 2906 2266 
Q 2828 2175 2409 1742 
Q 1991 1309 1228 531 
z
" transform="scale(0.015625)"/>
       </defs>
       <use xlink:href="#DejaVuSans-32"/>
       <use xlink:href="#DejaVuSans-3c0" x="63.623047"/>
      </g>
     </g>
    </g>
   </g>
   <g id="matplotlib.axis_2">
    <g id="ytick_1">
     <g id="line2d_4">
      <defs>
       <path id="mf77ee07799" d="M 0 0 
L -3.5 0 
" style="stroke: #000000; stroke-width: 0.8"/>
      </defs>
      <g>
       <use xlink:href="#mf77ee07799" x="28.942188" y="339.838312" style="stroke: #000000; stroke-width: 0.8"/>
      </g>
     </g>
     <g id="text_4">
      <!-- −1 -->
      <g transform="translate(7.2 343.637531) scale(0.1 -0.1)">
       <defs>
        <path id="DejaVuSans-2212" d="M 678 2272 
L 4684 2272 
L 4684 1741 
L 678 1741 
L 678 2272 
z
" transform="scale(0.015625)"/>
        <path id="DejaVuSans-31" d="M 794 531 
L 1825 531 
L 1825 4091 
L 703 3866 
L 703 4441 
L 1819 4666 
L 2450 4666 
L 2450 531 
L 3481 531 
L 3481 0 
L 794 0 
L 794 531 
z
" transform="scale(0.015625)"/>
       </defs>
       <use xlink:href="#DejaVuSans-2212"/>
       <use xlink:href="#DejaVuSans-31" x="83.789062"/>
      </g>
     </g>
    </g>
    <g id="ytick_2">
     <g id="line2d_5">
      <g>
       <use xlink:href="#mf77ee07799" x="28.942188" y="188.638218" style="stroke: #000000; stroke-width: 0.8"/>
      </g>
     </g>
     <g id="text_5">
      <!-- 0 -->
      <g transform="translate(15.579688 192.437437) scale(0.1 -0.1)">
       <use xlink:href="#DejaVuSans-30"/>
      </g>
     </g>
    </g>
    <g id="ytick_3">
     <g id="line2d_6">
      <g>
       <use xlink:href="#mf77ee07799" x="28.942188" y="37.438125" style="stroke: #000000; stroke-width: 0.8"/>
      </g>
     </g>
     <g id="text_6">
      <!-- 1 -->
      <g transform="translate(15.579688 41.237344) scale(0.1 -0.1)">
       <use xlink:href="#DejaVuSans-31"/>
      </g>
     </g>
    </g>
   </g>
   <g id="line2d_7">
    <path d="M 59.378551 37.438125 
L 668.105824 37.438125 
L 668.105824 37.438125 
" clip-path="url(#p72d904926e)" style="fill: none; stroke: #000000; stroke-width: 2; stroke-linecap: square"/>
   </g>
   <g id="line2d_8">
    <path d="M 59.378551 37.438125 
L 63.034571 37.545772 
L 66.69059 37.86856 
L 70.34661 38.406028 
L 74.00263 39.157413 
L 77.658649 40.121643 
L 81.314669 41.297346 
L 84.970689 42.682848 
L 88.626708 44.276176 
L 92.892065 46.394684 
L 97.157421 48.788861 
L 101.422777 51.454066 
L 105.688133 54.385135 
L 109.95349 57.576387 
L 114.218846 61.021638 
L 119.093539 65.261498 
L 123.968232 69.813642 
L 128.842925 74.666549 
L 134.326954 80.470252 
L 139.810984 86.620448 
L 145.295013 93.097439 
L 151.388379 100.652103 
L 157.481745 108.554704 
L 164.184448 117.612095 
L 171.496487 127.878916 
L 179.417863 139.389805 
L 188.557912 153.075466 
L 200.135308 170.848846 
L 238.523514 230.177474 
L 247.663563 243.688073 
L 255.584939 255.005436 
L 262.896979 265.060328 
L 269.599681 273.89643 
L 275.693047 281.576343 
L 281.786414 288.888737 
L 287.270443 295.131732 
L 292.754473 301.033596 
L 297.629165 305.978007 
L 302.503858 310.625414 
L 307.378551 314.964054 
L 312.253244 318.982944 
L 316.5186 322.229162 
L 320.783957 325.21648 
L 325.049313 327.939109 
L 329.314669 330.391772 
L 333.580025 332.569716 
L 337.845382 334.46872 
L 341.501401 335.87162 
L 345.157421 337.064875 
L 348.813441 338.046784 
L 352.46946 338.815951 
L 356.12548 339.371279 
L 359.7815 339.711979 
L 363.437519 339.837564 
L 367.093539 339.747857 
L 370.749559 339.442984 
L 374.405578 338.923381 
L 378.061598 338.189786 
L 381.717617 337.243245 
L 385.373637 336.085105 
L 389.029657 334.717015 
L 392.685676 333.140923 
L 396.951033 331.042269 
L 401.216389 328.667635 
L 405.481745 326.021623 
L 409.747102 323.109362 
L 414.012458 319.936496 
L 418.277814 316.509172 
L 423.152507 312.289195 
L 428.0272 307.756238 
L 432.901893 302.921777 
L 437.776586 297.798047 
L 443.260615 291.704261 
L 448.744645 285.280322 
L 454.838011 277.780461 
L 460.931377 269.928091 
L 467.634079 260.920436 
L 474.946119 250.701011 
L 482.867495 239.233086 
L 492.007544 225.585804 
L 502.975603 208.786205 
L 523.693047 176.526352 
L 537.707789 154.926813 
L 547.457175 140.289883 
L 555.987888 127.878916 
L 563.299927 117.612095 
L 570.00263 108.554704 
L 576.705332 99.880475 
L 582.798699 92.362272 
L 588.282728 85.920586 
L 593.766758 79.807935 
L 599.250787 74.043901 
L 604.12548 69.227933 
L 609.000173 64.714209 
L 613.874866 60.514156 
L 618.749559 56.638403 
L 623.014915 53.52088 
L 627.280271 50.665214 
L 631.545627 48.076941 
L 635.810984 45.761077 
L 640.07634 43.722108 
L 644.341696 41.963988 
L 647.997716 40.683158 
L 651.653735 39.613001 
L 655.309755 38.755041 
L 658.965775 38.110499 
L 662.621794 37.680295 
L 666.277814 37.465039 
L 668.105824 37.438125 
L 668.105824 37.438125 
" clip-path="url(#p72d904926e)" style="fill: none; stroke: #2196F3; stroke-width: 2; stroke-linecap: square"/>
   </g>
   <g id="line2d_9">
    <path d="M 59.378551 188.638218 
L 78.877323 158.412233 
L 89.236045 142.774853 
L 97.766758 130.282609 
L 105.688133 119.08552 
L 112.390836 109.971121 
L 119.093539 101.23311 
L 125.186905 93.651296 
L 131.280271 86.445103 
L 136.764301 80.30427 
L 142.24833 74.510464 
L 147.123023 69.666773 
L 151.997716 65.124217 
L 156.872409 60.894293 
L 161.747102 56.987707 
L 166.012458 53.842477 
L 170.277814 50.958482 
L 174.54317 48.341311 
L 178.808527 45.996035 
L 183.073883 43.927201 
L 187.339239 42.138817 
L 190.995259 40.831775 
L 194.651278 39.735194 
L 198.307298 38.850636 
L 201.963318 38.179361 
L 205.619337 37.722325 
L 209.275357 37.480178 
L 212.931377 37.453264 
L 216.587396 37.641624 
L 220.243416 38.044987 
L 223.899436 38.66278 
L 227.555455 39.494123 
L 231.211475 40.537833 
L 234.867495 41.792423 
L 238.523514 43.256106 
L 242.788871 45.225212 
L 247.054227 47.472253 
L 251.319583 49.992873 
L 255.584939 52.782189 
L 259.850296 55.834795 
L 264.115652 59.144774 
L 268.990345 63.234507 
L 273.865038 67.641656 
L 278.73973 72.355064 
L 283.614423 77.362802 
L 289.098453 83.332513 
L 294.582482 89.639549 
L 300.675848 97.018389 
L 306.769215 104.759535 
L 313.471917 113.656683 
L 320.783957 123.770301 
L 328.705332 135.141642 
L 337.236045 147.785205 
L 347.594767 163.554049 
L 362.828183 187.211786 
L 382.936291 218.398168 
L 393.295013 234.048275 
L 401.825726 246.554896 
L 409.747102 257.768383 
L 416.449804 266.898867 
L 423.152507 275.654908 
L 429.245873 283.254728 
L 435.339239 290.480391 
L 440.823269 296.639937 
L 446.307298 302.45352 
L 451.181991 307.315632 
L 456.056684 311.877354 
L 460.931377 316.127139 
L 465.80607 320.054232 
L 470.071426 323.217894 
L 474.336782 326.120741 
L 478.602138 328.757145 
L 482.867495 331.121999 
L 487.132851 333.210718 
L 491.398207 335.019255 
L 495.054227 336.343757 
L 498.710246 337.45794 
L 502.366266 338.360218 
L 506.022286 339.049307 
L 509.678305 339.524226 
L 513.334325 339.784298 
L 516.990345 339.829153 
L 520.646364 339.658728 
L 524.302384 339.273264 
L 527.958404 338.67331 
L 531.614423 337.859722 
L 535.270443 336.833657 
L 538.926463 335.596576 
L 542.582482 334.150241 
L 546.847839 332.201141 
L 551.113195 329.973815 
L 555.378551 327.47258 
L 559.643907 324.702283 
L 563.909264 321.668294 
L 568.17462 318.376491 
L 573.049313 314.306949 
L 577.924006 309.91932 
L 582.798699 305.224711 
L 587.673391 300.235005 
L 593.157421 294.284606 
L 598.64145 287.995789 
L 604.12548 281.3887 
L 610.218846 273.699983 
L 616.921549 264.855094 
L 623.624251 255.645543 
L 630.936291 245.234681 
L 639.467003 232.685673 
L 649.216389 217.931838 
L 662.621794 197.192371 
L 668.105824 188.638218 
L 668.105824 188.638218 
" clip-path="url(#p72d904926e)" style="fill: none; stroke: #FF4081; stroke-width: 2; stroke-linecap: square"/>
   </g>
   <g id="line2d_10">
    <path d="M 59.378551 37.438125 
L 61.206561 37.545772 
L 63.034571 37.86856 
L 64.862581 38.406028 
L 66.69059 39.157413 
L 68.5186 40.121643 
L 70.34661 41.297346 
L 72.17462 42.682848 
L 74.611966 44.853085 
L 77.049313 47.387263 
L 79.486659 50.278968 
L 81.924006 53.52088 
L 84.361352 57.104794 
L 87.408035 62.051725 
L 90.454718 67.499236 
L 93.501401 73.425785 
L 96.548084 79.807935 
L 100.204104 88.032253 
L 103.860124 96.829378 
L 108.12548 107.749667 
L 112.390836 119.296701 
L 117.265529 133.145787 
L 122.749559 149.389946 
L 130.061598 171.793556 
L 149.560369 232.002894 
L 155.044399 248.088623 
L 159.919092 261.754264 
L 164.184448 273.109382 
L 168.449804 283.809995 
L 172.105824 292.398018 
L 175.761844 300.395277 
L 178.808527 306.575424 
L 181.85521 312.289195 
L 184.901893 317.513994 
L 187.948576 322.229162 
L 190.385922 325.621761 
L 192.823269 328.667635 
L 195.260615 331.359074 
L 197.697961 333.689266 
L 200.135308 335.652312 
L 201.963318 336.880634 
L 203.791328 337.897873 
L 205.619337 338.702581 
L 207.447347 339.293612 
L 209.275357 339.670125 
L 211.103367 339.831583 
L 212.931377 339.777757 
L 214.759387 339.508724 
L 216.587396 339.024866 
L 218.415406 338.326872 
L 220.243416 337.415736 
L 222.071426 336.292756 
L 223.899436 334.95953 
L 226.336782 332.858172 
L 228.774129 330.391772 
L 231.211475 327.566573 
L 233.648821 324.389726 
L 236.086168 320.869272 
L 238.523514 317.014123 
L 241.570197 311.739463 
L 244.61688 305.978007 
L 247.663563 299.752537 
L 251.319583 291.704261 
L 254.975603 283.06917 
L 258.631622 273.89643 
L 262.896979 262.585201 
L 267.771672 248.961817 
L 273.255701 232.913049 
L 279.958404 212.549386 
L 304.941205 135.809327 
L 310.425234 120.143135 
L 315.299927 106.94783 
L 319.565283 96.075608 
L 323.221303 87.324347 
L 326.877323 79.149924 
L 329.924006 72.812227 
L 332.970689 66.932558 
L 336.017372 61.534168 
L 339.064055 56.638403 
L 341.501401 53.096761 
L 343.938748 49.898194 
L 346.376094 47.050798 
L 348.813441 44.56178 
L 351.250787 42.437441 
L 353.688133 40.683158 
L 355.516143 39.613001 
L 357.344153 38.755041 
L 359.172163 38.110499 
L 361.000173 37.680295 
L 362.828183 37.465039 
L 364.656192 37.465039 
L 366.484202 37.680295 
L 368.312212 38.110499 
L 370.140222 38.755041 
L 371.968232 39.613001 
L 373.796242 40.683158 
L 375.624251 41.963988 
L 378.061598 43.996281 
L 380.498944 46.394684 
L 382.936291 49.153126 
L 385.373637 52.264624 
L 387.810984 55.721305 
L 390.24833 59.514417 
L 393.295013 64.714209 
L 396.341696 70.404053 
L 399.388379 76.561446 
L 403.044399 84.533077 
L 406.700418 93.097439 
L 410.356438 102.205769 
L 414.621794 113.450327 
L 419.496487 127.009314 
L 424.980517 143.001451 
L 431.683219 163.319633 
L 443.260615 199.327697 
L 452.400664 227.427112 
L 458.49403 245.45507 
L 463.368723 259.244234 
L 467.634079 270.728316 
L 471.899436 281.576343 
L 475.555455 290.304542 
L 479.211475 298.453896 
L 482.258158 304.769272 
L 485.304841 310.625414 
L 488.351524 315.999164 
L 491.398207 320.869272 
L 493.835554 324.389726 
L 496.2729 327.566573 
L 498.710246 330.391772 
L 501.147593 332.858172 
L 503.584939 334.95953 
L 506.022286 336.690528 
L 507.850296 337.743056 
L 509.678305 338.583274 
L 511.506315 339.209985 
L 513.334325 339.622296 
L 515.162335 339.819621 
L 516.990345 339.801679 
L 518.818355 339.568495 
L 520.646364 339.120402 
L 522.474374 338.458036 
L 524.302384 337.582342 
L 526.130394 336.494567 
L 527.958404 335.196258 
L 530.39575 333.140923 
L 532.833097 330.719831 
L 535.270443 327.939109 
L 537.707789 324.805796 
L 540.145136 321.327824 
L 542.582482 317.513994 
L 545.629165 312.289195 
L 548.675848 306.575424 
L 551.722531 300.395277 
L 555.378551 292.398018 
L 559.034571 283.809995 
L 562.69059 274.680105 
L 566.955947 263.413212 
L 571.83064 249.832624 
L 577.314669 233.821452 
L 584.017372 213.487909 
L 596.204104 175.578685 
L 604.734816 149.389946 
L 610.828183 131.381011 
L 615.702875 117.612095 
L 619.968232 106.149224 
L 624.233588 95.3255 
L 627.889608 86.620448 
L 631.545627 78.496243 
L 634.59231 72.203251 
L 637.638993 66.370694 
L 640.685676 61.021638 
L 643.732359 56.177234 
L 646.169706 52.678004 
L 648.607052 49.522908 
L 651.044399 46.719934 
L 653.481745 44.276176 
L 655.919092 42.197818 
L 657.747102 40.882045 
L 659.575111 39.776662 
L 661.403121 38.883243 
L 663.231131 38.20306 
L 665.059141 37.737081 
L 666.887151 37.485971 
L 668.105824 37.438125 
L 668.105824 37.438125 
" clip-path="url(#p72d904926e)" style="fill: none; stroke: #4CAF50; stroke-width: 2; stroke-linecap: square"/>
   </g>
   <g id="line2d_11">
    <path d="M 59.378551 188.638218 
L 70.955947 152.844437 
L 77.049313 134.697179 
L 82.533342 119.08552 
L 86.798699 107.548906 
L 91.064055 96.640594 
L 94.720074 87.854902 
L 98.376094 79.643028 
L 101.422777 73.271967 
L 104.46946 67.357117 
L 107.516143 61.921866 
L 110.562826 56.987707 
L 113.000173 53.414348 
L 115.437519 50.18326 
L 117.874866 47.302622 
L 120.312212 44.779725 
L 122.749559 42.620954 
L 125.186905 40.831775 
L 127.014915 39.735194 
L 128.842925 38.850636 
L 130.670934 38.179361 
L 132.498944 37.722325 
L 134.326954 37.480178 
L 136.154964 37.453264 
L 137.982974 37.641624 
L 139.810984 38.044987 
L 141.638993 38.66278 
L 143.467003 39.494123 
L 145.295013 40.537833 
L 147.123023 41.792423 
L 149.560369 43.790115 
L 151.997716 46.154438 
L 154.435062 48.879409 
L 156.872409 51.95813 
L 159.309755 55.382807 
L 161.747102 59.144774 
L 164.793785 64.306959 
L 167.840468 69.960805 
L 170.887151 76.083955 
L 173.933834 82.652194 
L 177.589853 91.084911 
L 181.245873 100.073054 
L 185.511229 111.192785 
L 189.776586 122.912584 
L 194.651278 136.924741 
L 200.744645 155.158612 
L 209.275357 181.508594 
L 223.290099 224.893791 
L 229.383465 243.023188 
L 234.258158 256.921269 
L 239.132851 270.12845 
L 243.398207 281.012728 
L 247.054227 289.775488 
L 250.710246 297.962415 
L 253.75693 304.311249 
L 256.803613 310.20266 
L 259.850296 315.613351 
L 262.896979 320.521925 
L 265.334325 324.074148 
L 267.771672 327.283564 
L 270.209018 330.142047 
L 272.646364 332.642364 
L 275.083711 334.778186 
L 277.521057 336.544106 
L 279.349067 337.623073 
L 281.177077 338.489901 
L 283.005087 339.143356 
L 284.833097 339.582505 
L 286.661106 339.806725 
L 288.489116 339.815696 
L 290.317126 339.609406 
L 292.145136 339.188147 
L 293.973146 338.55252 
L 295.801156 337.703431 
L 297.629165 336.642087 
L 299.457175 335.37 
L 301.894522 333.349236 
L 304.331868 330.962187 
L 306.769215 328.214895 
L 309.206561 325.114315 
L 311.643907 321.668294 
L 314.081254 317.885554 
L 317.127937 312.698284 
L 320.17462 307.020426 
L 323.221303 300.874432 
L 326.267986 294.284606 
L 329.924006 285.827765 
L 333.580025 276.817568 
L 337.845382 265.674893 
L 342.720074 252.21476 
L 348.204104 236.310238 
L 354.29747 217.931838 
L 364.046856 187.687256 
L 375.014915 153.769077 
L 381.108281 135.586634 
L 386.59231 119.931271 
L 391.467003 106.747874 
L 395.732359 95.887737 
L 399.388379 87.147995 
L 403.044399 78.986096 
L 406.091082 72.659553 
L 409.137765 66.79164 
L 412.184448 61.405563 
L 415.231131 56.52262 
L 417.668477 52.991568 
L 420.105824 49.803857 
L 422.54317 46.967556 
L 424.980517 44.489844 
L 427.417863 42.376993 
L 429.85521 40.63435 
L 431.683219 39.573006 
L 433.511229 38.723916 
L 435.339239 38.08829 
L 437.167249 37.667031 
L 438.995259 37.46074 
L 440.823269 37.469712 
L 442.651278 37.693932 
L 444.479288 38.133081 
L 446.307298 38.786535 
L 448.135308 39.653364 
L 449.963318 40.732331 
L 451.791328 42.021902 
L 454.228674 44.065719 
L 456.66602 46.475469 
L 459.103367 49.245055 
L 461.540713 52.367464 
L 463.97806 55.834795 
L 466.415406 59.63827 
L 469.462089 64.850573 
L 472.508772 70.552387 
L 475.555455 76.721165 
L 479.211475 84.70562 
L 482.867495 93.281822 
L 486.523514 102.400944 
L 490.788871 113.656683 
L 495.663563 127.226488 
L 501.147593 143.228162 
L 507.850296 163.554049 
L 520.037028 201.460882 
L 528.56774 227.656849 
L 534.661106 245.675318 
L 539.535799 259.454375 
L 543.801156 270.927866 
L 548.066512 281.763755 
L 551.722531 290.480391 
L 555.378551 298.617181 
L 558.425234 304.921373 
L 561.471917 310.765729 
L 564.5186 316.127139 
L 567.565283 320.984401 
L 570.00263 324.494248 
L 572.439976 327.660223 
L 574.877323 330.474313 
L 577.314669 332.929395 
L 579.752016 335.019255 
L 582.189362 336.738604 
L 584.017372 337.782314 
L 585.845382 338.613657 
L 587.673391 339.23145 
L 589.501401 339.634813 
L 591.329411 339.823173 
L 593.157421 339.796259 
L 594.985431 339.554112 
L 596.813441 339.097075 
L 598.64145 338.4258 
L 600.46946 337.541243 
L 602.29747 336.444662 
L 604.12548 335.137619 
L 606.562826 333.070771 
L 609.000173 330.638342 
L 611.437519 327.846491 
L 613.874866 324.702283 
L 616.312212 321.213677 
L 618.749559 317.389504 
L 621.796242 312.15222 
L 624.842925 306.426506 
L 627.889608 300.235005 
L 631.545627 292.224963 
L 635.201647 283.625141 
L 638.857667 274.484504 
L 643.123023 263.206485 
L 647.997716 249.615148 
L 653.481745 233.594518 
L 660.184448 213.253369 
L 668.105824 188.638218 
L 668.105824 188.638218 
" clip-path="url(#p72d904926e)" style="fill: none; stroke: #FFA000; stroke-width: 2; stroke-linecap: square"/>
   </g>
   <g id="line2d_12">
    <path d="M 28.942188 188.638218 
L 698.542188 188.638218 
" clip-path="url(#p72d904926e)" style="fill: none; stroke: #000000; stroke-opacity: 0.1; stroke-width: 1.5; stroke-linecap: square"/>
   </g>
   <g id="line2d_13">
    <path d="M 28.942188 37.438125 
L 698.542188 37.438125 
" clip-path="url(#p72d904926e)" style="fill: none; stroke-dasharray: 5.55,2.4; stroke-dashoffset: 0; stroke: #000000; stroke-opacity: 0.1; stroke-width: 1.5"/>
   </g>
   <g id="line2d_14">
    <path d="M 28.942188 339.838312 
L 698.542188 339.838312 
" clip-path="url(#p72d904926e)" style="fill: none; stroke-dasharray: 5.55,2.4; stroke-dashoffset: 0; stroke: #000000; stroke-opacity: 0.1; stroke-width: 1.5"/>
   </g>
   <g id="line2d_15">
    <path d="M 59.378551 354.958125 
L 59.378551 22.318125 
" clip-path="url(#p72d904926e)" style="fill: none; stroke: #000000; stroke-opacity: 0.1; stroke-width: 1.5; stroke-linecap: square"/>
   </g>
   <g id="line2d_16">
    <path d="M 668.105824 354.958125 
L 668.105824 22.318125 
" clip-path="url(#p72d904926e)" style="fill: none; stroke-dasharray: 5.55,2.4; stroke-dashoffset: 0; stroke: #000000; stroke-opacity: 0.1; stroke-width: 1.5"/>
   </g>
   <g id="patch_3">
    <path d="M 28.942188 354.958125 
L 28.942188 22.318125 
" style="fill: none; stroke: #000000; stroke-width: 0.8; stroke-linejoin: miter; stroke-linecap: square"/>
   </g>
   <g id="patch_4">
    <path d="M 698.542188 354.958125 
L 698.542188 22.318125 
" style="fill: none; stroke:rgb(255, 255, 255); stroke-width: 0.8; stroke-linejoin: miter; stroke-linecap: square"/>
   </g>
   <g id="patch_5">
    <path d="M 28.942188 354.958125 
L 698.542187 354.958125 
" style="fill: none; stroke: #000000; stroke-width: 0.8; stroke-linejoin: miter; stroke-linecap: square"/>
   </g>
   <g id="patch_6">
    <path d="M 28.942188 22.318125 
L 698.542187 22.318125 
" style="fill: none; stroke:rgb(255, 255, 255); stroke-width: 0.8; stroke-linejoin: miter; stroke-linecap: square"/>
   </g>
   <g id="text_7">
    <!-- Orthogonal Family -->
    <g transform="translate(308.883438 16.318125) scale(0.12 -0.12)">
     <defs>
      <path id="DejaVuSans-4f" d="M 2522 4238 
Q 1834 4238 1429 3725 
Q 1025 3213 1025 2328 
Q 1025 1447 1429 934 
Q 1834 422 2522 422 
Q 3209 422 3611 934 
Q 4013 1447 4013 2328 
Q 4013 3213 3611 3725 
Q 3209 4238 2522 4238 
z
M 2522 4750 
Q 3503 4750 4090 4092 
Q 4678 3434 4678 2328 
Q 4678 1225 4090 567 
Q 3503 -91 2522 -91 
Q 1538 -91 948 565 
Q 359 1222 359 2328 
Q 359 3434 948 4092 
Q 1538 4750 2522 4750 
z
" transform="scale(0.015625)"/>
      <path id="DejaVuSans-72" d="M 2631 2963 
Q 2534 3019 2420 3045 
Q 2306 3072 2169 3072 
Q 1681 3072 1420 2755 
Q 1159 2438 1159 1844 
L 1159 0 
L 581 0 
L 581 3500 
L 1159 3500 
L 1159 2956 
Q 1341 3275 1631 3429 
Q 1922 3584 2338 3584 
Q 2397 3584 2469 3576 
Q 2541 3569 2628 3553 
L 2631 2963 
z
" transform="scale(0.015625)"/>
      <path id="DejaVuSans-74" d="M 1172 4494 
L 1172 3500 
L 2356 3500 
L 2356 3053 
L 1172 3053 
L 1172 1153 
Q 1172 725 1289 603 
Q 1406 481 1766 481 
L 2356 481 
L 2356 0 
L 1766 0 
Q 1100 0 847 248 
Q 594 497 594 1153 
L 594 3053 
L 172 3053 
L 172 3500 
L 594 3500 
L 594 4494 
L 1172 4494 
z
" transform="scale(0.015625)"/>
      <path id="DejaVuSans-68" d="M 3513 2113 
L 3513 0 
L 2938 0 
L 2938 2094 
Q 2938 2591 2744 2837 
Q 2550 3084 2163 3084 
Q 1697 3084 1428 2787 
Q 1159 2491 1159 1978 
L 1159 0 
L 581 0 
L 581 4863 
L 1159 4863 
L 1159 2956 
Q 1366 3272 1645 3428 
Q 1925 3584 2291 3584 
Q 2894 3584 3203 3211 
Q 3513 2838 3513 2113 
z
" transform="scale(0.015625)"/>
      <path id="DejaVuSans-6f" d="M 1959 3097 
Q 1497 3097 1228 2736 
Q 959 2375 959 1747 
Q 959 1119 1226 758 
Q 1494 397 1959 397 
Q 2419 397 2687 759 
Q 2956 1122 2956 1747 
Q 2956 2369 2687 2733 
Q 2419 3097 1959 3097 
z
M 1959 3584 
Q 2709 3584 3137 3096 
Q 3566 2609 3566 1747 
Q 3566 888 3137 398 
Q 2709 -91 1959 -91 
Q 1206 -91 779 398 
Q 353 888 353 1747 
Q 353 2609 779 3096 
Q 1206 3584 1959 3584 
z
" transform="scale(0.015625)"/>
      <path id="DejaVuSans-67" d="M 2906 1791 
Q 2906 2416 2648 2759 
Q 2391 3103 1925 3103 
Q 1463 3103 1205 2759 
Q 947 2416 947 1791 
Q 947 1169 1205 825 
Q 1463 481 1925 481 
Q 2391 481 2648 825 
Q 2906 1169 2906 1791 
z
M 3481 434 
Q 3481 -459 3084 -895 
Q 2688 -1331 1869 -1331 
Q 1566 -1331 1297 -1286 
Q 1028 -1241 775 -1147 
L 775 -588 
Q 1028 -725 1275 -790 
Q 1522 -856 1778 -856 
Q 2344 -856 2625 -561 
Q 2906 -266 2906 331 
L 2906 616 
Q 2728 306 2450 153 
Q 2172 0 1784 0 
Q 1141 0 747 490 
Q 353 981 353 1791 
Q 353 2603 747 3093 
Q 1141 3584 1784 3584 
Q 2172 3584 2450 3431 
Q 2728 3278 2906 2969 
L 2906 3500 
L 3481 3500 
L 3481 434 
z
" transform="scale(0.015625)"/>
      <path id="DejaVuSans-6e" d="M 3513 2113 
L 3513 0 
L 2938 0 
L 2938 2094 
Q 2938 2591 2744 2837 
Q 2550 3084 2163 3084 
Q 1697 3084 1428 2787 
Q 1159 2491 1159 1978 
L 1159 0 
L 581 0 
L 581 3500 
L 1159 3500 
L 1159 2956 
Q 1366 3272 1645 3428 
Q 1925 3584 2291 3584 
Q 2894 3584 3203 3211 
Q 3513 2838 3513 2113 
z
" transform="scale(0.015625)"/>
      <path id="DejaVuSans-61" d="M 2194 1759 
Q 1497 1759 1228 1600 
Q 959 1441 959 1056 
Q 959 750 1161 570 
Q 1363 391 1709 391 
Q 2188 391 2477 730 
Q 2766 1069 2766 1631 
L 2766 1759 
L 2194 1759 
z
M 3341 1997 
L 3341 0 
L 2766 0 
L 2766 531 
Q 2569 213 2275 61 
Q 1981 -91 1556 -91 
Q 1019 -91 701 211 
Q 384 513 384 1019 
Q 384 1609 779 1909 
Q 1175 2209 1959 2209 
L 2766 2209 
L 2766 2266 
Q 2766 2663 2505 2880 
Q 2244 3097 1772 3097 
Q 1472 3097 1187 3025 
Q 903 2953 641 2809 
L 641 3341 
Q 956 3463 1253 3523 
Q 1550 3584 1831 3584 
Q 2591 3584 2966 3190 
Q 3341 2797 3341 1997 
z
" transform="scale(0.015625)"/>
      <path id="DejaVuSans-6c" d="M 603 4863 
L 1178 4863 
L 1178 0 
L 603 0 
L 603 4863 
z
" transform="scale(0.015625)"/>
      <path id="DejaVuSans-20" transform="scale(0.015625)"/>
      <path id="DejaVuSans-46" d="M 628 4666 
L 3309 4666 
L 3309 4134 
L 1259 4134 
L 1259 2759 
L 3109 2759 
L 3109 2228 
L 1259 2228 
L 1259 0 
L 628 0 
L 628 4666 
z
" transform="scale(0.015625)"/>
      <path id="DejaVuSans-6d" d="M 3328 2828 
Q 3544 3216 3844 3400 
Q 4144 3584 4550 3584 
Q 5097 3584 5394 3201 
Q 5691 2819 5691 2113 
L 5691 0 
L 5113 0 
L 5113 2094 
Q 5113 2597 4934 2840 
Q 4756 3084 4391 3084 
Q 3944 3084 3684 2787 
Q 3425 2491 3425 1978 
L 3425 0 
L 2847 0 
L 2847 2094 
Q 2847 2600 2669 2842 
Q 2491 3084 2119 3084 
Q 1678 3084 1418 2786 
Q 1159 2488 1159 1978 
L 1159 0 
L 581 0 
L 581 3500 
L 1159 3500 
L 1159 2956 
Q 1356 3278 1631 3431 
Q 1906 3584 2284 3584 
Q 2666 3584 2933 3390 
Q 3200 3197 3328 2828 
z
" transform="scale(0.015625)"/>
      <path id="DejaVuSans-69" d="M 603 3500 
L 1178 3500 
L 1178 0 
L 603 0 
L 603 3500 
z
M 603 4863 
L 1178 4863 
L 1178 4134 
L 603 4134 
L 603 4863 
z
" transform="scale(0.015625)"/>
      <path id="DejaVuSans-79" d="M 2059 -325 
Q 1816 -950 1584 -1140 
Q 1353 -1331 966 -1331 
L 506 -1331 
L 506 -850 
L 844 -850 
Q 1081 -850 1212 -737 
Q 1344 -625 1503 -206 
L 1606 56 
L 191 3500 
L 800 3500 
L 1894 763 
L 2988 3500 
L 3597 3500 
L 2059 -325 
z
" transform="scale(0.015625)"/>
     </defs>
     <use xlink:href="#DejaVuSans-4f"/>
     <use xlink:href="#DejaVuSans-72" x="78.710938"/>
     <use xlink:href="#DejaVuSans-74" x="119.824219"/>
     <use xlink:href="#DejaVuSans-68" x="159.033203"/>
     <use xlink:href="#DejaVuSans-6f" x="222.412109"/>
     <use xlink:href="#DejaVuSans-67" x="283.59375"/>
     <use xlink:href="#DejaVuSans-6f" x="347.070312"/>
     <use xlink:href="#DejaVuSans-6e" x="408.251953"/>
     <use xlink:href="#DejaVuSans-61" x="471.630859"/>
     <use xlink:href="#DejaVuSans-6c" x="532.910156"/>
     <use xlink:href="#DejaVuSans-20" x="560.693359"/>
     <use xlink:href="#DejaVuSans-46" x="592.480469"/>
     <use xlink:href="#DejaVuSans-61" x="640.875"/>
     <use xlink:href="#DejaVuSans-6d" x="702.154297"/>
     <use xlink:href="#DejaVuSans-69" x="799.566406"/>
     <use xlink:href="#DejaVuSans-6c" x="827.349609"/>
     <use xlink:href="#DejaVuSans-79" x="855.132812"/>
    </g>
   </g>
   <g id="legend_1">
    <g id="patch_7">
     <path d="M 705.542188 226.833438 
L 774.453125 226.833438 
Q 776.453125 226.833438 776.453125 224.833438 
L 776.453125 152.442813 
Q 776.453125 150.442813 774.453125 150.442813 
L 705.542188 150.442813 
Q 703.542188 150.442813 703.542188 152.442813 
L 703.542188 224.833438 
Q 703.542188 226.833438 705.542188 226.833438 
z
" style="fill: #ffffff; opacity: 0.8; stroke: #cccccc; stroke-linejoin: miter"/>
    </g>
    <g id="line2d_17">
     <path d="M 707.542188 158.54125 
L 717.542188 158.54125 
L 727.542188 158.54125 
" style="fill: none; stroke: #000000; stroke-width: 1.5; stroke-linecap: square"/>
    </g>
    <g id="text_8">
     <!-- 1 -->
     <g transform="translate(735.542188 162.04125) scale(0.1 -0.1)">
      <use xlink:href="#DejaVuSans-31"/>
     </g>
    </g>
    <g id="line2d_18">
     <path d="M 707.542188 173.219375 
L 717.542188 173.219375 
L 727.542188 173.219375 
" style="fill: none; stroke: #2196F3; stroke-width: 1.5; stroke-linecap: square"/>
    </g>
    <g id="text_9">
     <!-- cos(x) -->
     <g transform="translate(735.542188 176.719375) scale(0.1 -0.1)">
      <defs>
       <path id="DejaVuSans-63" d="M 3122 3366 
L 3122 2828 
Q 2878 2963 2633 3030 
Q 2388 3097 2138 3097 
Q 1578 3097 1268 2742 
Q 959 2388 959 1747 
Q 959 1106 1268 751 
Q 1578 397 2138 397 
Q 2388 397 2633 464 
Q 2878 531 3122 666 
L 3122 134 
Q 2881 22 2623 -34 
Q 2366 -91 2075 -91 
Q 1284 -91 818 406 
Q 353 903 353 1747 
Q 353 2603 823 3093 
Q 1294 3584 2113 3584 
Q 2378 3584 2631 3529 
Q 2884 3475 3122 3366 
z
" transform="scale(0.015625)"/>
       <path id="DejaVuSans-73" d="M 2834 3397 
L 2834 2853 
Q 2591 2978 2328 3040 
Q 2066 3103 1784 3103 
Q 1356 3103 1142 2972 
Q 928 2841 928 2578 
Q 928 2378 1081 2264 
Q 1234 2150 1697 2047 
L 1894 2003 
Q 2506 1872 2764 1633 
Q 3022 1394 3022 966 
Q 3022 478 2636 193 
Q 2250 -91 1575 -91 
Q 1294 -91 989 -36 
Q 684 19 347 128 
L 347 722 
Q 666 556 975 473 
Q 1284 391 1588 391 
Q 1994 391 2212 530 
Q 2431 669 2431 922 
Q 2431 1156 2273 1281 
Q 2116 1406 1581 1522 
L 1381 1569 
Q 847 1681 609 1914 
Q 372 2147 372 2553 
Q 372 3047 722 3315 
Q 1072 3584 1716 3584 
Q 2034 3584 2315 3537 
Q 2597 3491 2834 3397 
z
" transform="scale(0.015625)"/>
       <path id="DejaVuSans-28" d="M 1984 4856 
Q 1566 4138 1362 3434 
Q 1159 2731 1159 2009 
Q 1159 1288 1364 580 
Q 1569 -128 1984 -844 
L 1484 -844 
Q 1016 -109 783 600 
Q 550 1309 550 2009 
Q 550 2706 781 3412 
Q 1013 4119 1484 4856 
L 1984 4856 
z
" transform="scale(0.015625)"/>
       <path id="DejaVuSans-78" d="M 3513 3500 
L 2247 1797 
L 3578 0 
L 2900 0 
L 1881 1375 
L 863 0 
L 184 0 
L 1544 1831 
L 300 3500 
L 978 3500 
L 1906 2253 
L 2834 3500 
L 3513 3500 
z
" transform="scale(0.015625)"/>
       <path id="DejaVuSans-29" d="M 513 4856 
L 1013 4856 
Q 1481 4119 1714 3412 
Q 1947 2706 1947 2009 
Q 1947 1309 1714 600 
Q 1481 -109 1013 -844 
L 513 -844 
Q 928 -128 1133 580 
Q 1338 1288 1338 2009 
Q 1338 2731 1133 3434 
Q 928 4138 513 4856 
z
" transform="scale(0.015625)"/>
      </defs>
      <use xlink:href="#DejaVuSans-63"/>
      <use xlink:href="#DejaVuSans-6f" x="54.980469"/>
      <use xlink:href="#DejaVuSans-73" x="116.162109"/>
      <use xlink:href="#DejaVuSans-28" x="168.261719"/>
      <use xlink:href="#DejaVuSans-78" x="207.275391"/>
      <use xlink:href="#DejaVuSans-29" x="266.455078"/>
     </g>
    </g>
    <g id="line2d_19">
     <path d="M 707.542188 187.8975 
L 717.542188 187.8975 
L 727.542188 187.8975 
" style="fill: none; stroke: #FF4081; stroke-width: 1.5; stroke-linecap: square"/>
    </g>
    <g id="text_10">
     <!-- sin(x) -->
     <g transform="translate(735.542188 191.3975) scale(0.1 -0.1)">
      <use xlink:href="#DejaVuSans-73"/>
      <use xlink:href="#DejaVuSans-69" x="52.099609"/>
      <use xlink:href="#DejaVuSans-6e" x="79.882812"/>
      <use xlink:href="#DejaVuSans-28" x="143.261719"/>
      <use xlink:href="#DejaVuSans-78" x="182.275391"/>
      <use xlink:href="#DejaVuSans-29" x="241.455078"/>
     </g>
    </g>
    <g id="line2d_20">
     <path d="M 707.542188 202.575625 
L 717.542188 202.575625 
L 727.542188 202.575625 
" style="fill: none; stroke: #4CAF50; stroke-width: 1.5; stroke-linecap: square"/>
    </g>
    <g id="text_11">
     <!-- cos(2x) -->
     <g transform="translate(735.542188 206.075625) scale(0.1 -0.1)">
      <use xlink:href="#DejaVuSans-63"/>
      <use xlink:href="#DejaVuSans-6f" x="54.980469"/>
      <use xlink:href="#DejaVuSans-73" x="116.162109"/>
      <use xlink:href="#DejaVuSans-28" x="168.261719"/>
      <use xlink:href="#DejaVuSans-32" x="207.275391"/>
      <use xlink:href="#DejaVuSans-78" x="270.898438"/>
      <use xlink:href="#DejaVuSans-29" x="330.078125"/>
     </g>
    </g>
    <g id="line2d_21">
     <path d="M 707.542188 217.25375 
L 717.542188 217.25375 
L 727.542188 217.25375 
" style="fill: none; stroke: #FFA000; stroke-width: 1.5; stroke-linecap: square"/>
    </g>
    <g id="text_12">
     <!-- sin(2x) -->
     <g transform="translate(735.542188 220.75375) scale(0.1 -0.1)">
      <use xlink:href="#DejaVuSans-73"/>
      <use xlink:href="#DejaVuSans-69" x="52.099609"/>
      <use xlink:href="#DejaVuSans-6e" x="79.882812"/>
      <use xlink:href="#DejaVuSans-28" x="143.261719"/>
      <use xlink:href="#DejaVuSans-32" x="182.275391"/>
      <use xlink:href="#DejaVuSans-78" x="245.898438"/>
      <use xlink:href="#DejaVuSans-29" x="305.078125"/>
     </g>
    </g>
   </g>
  </g>
 </g>
 <defs>
  <clipPath id="p72d904926e">
   <rect x="28.942188" y="22.318125" width="669.6" height="332.64"/>
  </clipPath>
 </defs>
</svg>
